<?xml version="1.0" encoding="UTF-8"?>
<svg id="Calque_1" xmlns="http://www.w3.org/2000/svg" version="1.1" viewBox="0 0 100 100">
  <!-- Generator: Adobe Illustrator 29.7.0, SVG Export Plug-In . SVG Version: 2.1.1 Build 138)  -->
  <path d="M26.32,28.52c.53,0,1.07.19,1.5.57l21.88,19.22,21.89-19.23c.94-.83,2.38-.73,3.21.21.83.94.73,2.38-.21,3.21l-23.39,20.54c-.86.76-2.14.76-3,0l-23.38-20.54c-.94-.83-1.04-2.27-.21-3.21.44-.51,1.08-.77,1.71-.77Z"/>
  <path d="M26.32,42.13c.53,0,1.07.19,1.5.57l21.88,19.22,21.89-19.22c.94-.83,2.38-.73,3.21.21.83.94.73,2.38-.21,3.21l-23.38,20.55c-.86.76-2.14.76-3,0l-23.39-20.55c-.94-.83-1.04-2.27-.21-3.21.44-.52,1.08-.78,1.71-.78Z"/>
</svg>